Coordinates
version=1
nRows=7
nColumns=40
inDegrees=yes

Units are S.I. units (second, meters, Newtons, ...)
If the header above contains a line with 'inDegrees', this indicates whether rotational values are in degrees (yes) or radians (no).

endheader
time	pelvis_tilt	pelvis_list	pelvis_rotation	pelvis_tx	pelvis_ty	pelvis_tz	hip_flexion_r	hip_adduction_r	hip_rotation_r	knee_angle_r	knee_angle_r_beta	ankle_angle_r	subtalar_angle_r	mtp_angle_r	hip_flexion_l	hip_adduction_l	hip_rotation_l	knee_angle_l	knee_angle_l_beta	ankle_angle_l	subtalar_angle_l	mtp_angle_l	lumbar_extension	lumbar_bending	lumbar_rotation	arm_flex_r	arm_add_r	arm_rot_r	elbow_flex_r	pro_sup_r	wrist_flex_r	wrist_dev_r	arm_flex_l	arm_add_l	arm_rot_l	elbow_flex_l	pro_sup_l	wrist_flex_l	wrist_dev_l
      2.86000000	    -19.41286214	      1.01567218	      5.13537500	     -0.34903093	      0.90181784	     -0.73750595	     45.76110710	     -0.71426639	     -8.34140005	     49.26168931	      0.85977867	      9.76657554	      0.00000000	      0.00000000	     31.08711188	     -4.70995950	     -1.08786515	     92.84856910	      1.62051324	     -6.19718575	      0.00000000	      0.00000000	     -3.41640827	      2.27084646	     -4.63523884	     89.88184239	     -5.09350230	     21.13937638	     38.34155261	     75.10613138	      0.00000000	      0.00000000	     89.82326789	    -11.29107080	     23.42337930	     39.64090497	     80.07607865	      0.00000000	      0.00000000
      2.86500000	    -19.54591447	      1.00858807	      5.10137772	     -0.34926501	      0.90108553	     -0.73744157	     46.00342680	     -0.69151443	     -8.28860220	     49.43904251	      0.86287407	      9.82901433	      0.00000000	      0.00000000	     31.16551895	     -4.72258906	     -1.10239989	     92.86977156	      1.62088329	     -6.22833247	      0.00000000	      0.00000000	     -3.35561286	      2.26587018	     -4.60849447	     89.88391278	     -5.16406733	     21.92369095	     38.51925958	     70.22444524	      0.00000000	      0.00000000	     89.82598560	    -11.36159437	     24.10081600	     39.84443336	     75.10442722	      0.00000000	      0.00000000
      2.87000000	    -19.70189173	      0.99837129	      5.06541066	     -0.34959508	      0.90028399	     -0.73735643	     46.28428567	     -0.66289162	     -8.23834993	     49.62033644	      0.86603825	      9.92717097	      0.00000000	      0.00000000	     31.27414647	     -4.77541474	     -1.15565926	     92.90280150	      1.62145977	     -6.17855872	      0.00000000	      0.00000000	     -3.28376946	      2.27269991	     -4.66853047	     89.88607428	     -5.16576951	     23.08537999	     38.92812893	     63.32571399	      0.00000000	      0.00000000	     89.82810437	    -11.67374714	     25.32092981	     40.38949129	     67.39662416	      0.00000000	      0.00000000
      2.87500000	    -19.84065414	      0.97389167	      5.11051756	     -0.34996082	      0.89955306	     -0.73742053	     46.52314214	     -0.69346435	     -8.28382779	     49.75875614	      0.86845413	     10.00052625	      0.00000000	      0.00000000	     31.39449148	     -4.73397674	     -1.05453019	     92.94125384	      1.62213089	     -6.21104999	      0.00000000	      0.00000000	     -3.24556971	      2.29100742	     -4.66119285	     89.88516719	     -5.02884274	     21.04359943	     38.57981836	     74.25942277	      0.00000000	      0.00000000	     89.83020561	    -11.31645147	     23.14435877	     39.82149105	     80.26549695	      0.00000000	      0.00000000
      2.88000000	    -19.97205427	      0.88621513	      5.12359981	     -0.35031033	      0.89883585	     -0.73735974	     46.75040552	     -0.62744531	     -8.30447366	     49.88124896	      0.87059203	     10.07548105	      0.00000000	      0.00000000	     31.51418114	     -4.78523794	     -0.95678869	     93.00037230	      1.62316270	     -6.24109705	      0.00000000	      0.00000000	     -3.19700192	      2.36766910	     -4.64489191	     89.88692163	     -5.16085060	     21.76077903	     38.83576640	     70.30796899	      0.00000000	      0.00000000	     89.83215773	    -11.29234409	     23.60557748	     39.97574655	     76.02793602	      0.00000000	      0.00000000
      2.88500000	    -20.06215481	      0.87280760	      5.14420495	     -0.35065870	      0.89819906	     -0.73736162	     46.94626524	     -0.64358460	     -8.32393094	     50.03786381	      0.87332547	     10.14495167	      0.00000000	      0.00000000	     31.55613330	     -4.79427785	     -0.92706334	     93.02718838	      1.62363073	     -6.24255011	      0.00000000	      0.00000000	     -3.20722604	      2.37576134	     -4.68665164	     89.88812528	     -5.06279135	     20.90174395	     38.74325791	     74.76121233	      0.00000000	      0.00000000	     89.83251913	    -11.20451005	     22.77586000	     39.90731504	     80.07097953	      0.00000000	      0.00000000
      2.89000000	    -20.16582568	      0.80867699	      5.13148304	     -0.35092371	      0.89752416	     -0.73732521	     47.14090975	     -0.60422728	     -8.37883465	     50.17280017	      0.87568056	     10.20736141	      0.00000000	      0.00000000	     31.61211882	     -4.87246579	     -0.91162858	     93.05400713	      1.62409881	     -6.23931914	      0.00000000	      0.00000000	     -3.18196122	      2.43388809	     -4.74282466	     89.88883063	     -4.90918421	     20.61106151	     38.72756350	     75.21974766	      0.00000000	      0.00000000	     89.83392170	    -11.25337741	     22.68099195	     39.98165765	     79.96332954	      0.00000000	      0.00000000
